<?xml version="1.0" encoding="iso-8859-1"?>
<!-- Generator: Adobe Illustrator 19.0.0, SVG Export Plug-In . SVG Version: 6.00 Build 0)  -->
<svg version="1.1" id="Layer_1" xmlns="http://www.w3.org/2000/svg" xmlns:xlink="http://www.w3.org/1999/xlink" x="0px" y="0px"
	 viewBox="0 0 511.999 511.999" style="enable-background:new 0 0 511.999 511.999;" xml:space="preserve">
<path style="fill:#703F16;" d="M440.048,215.86c36.904-6.089,65.431-35.423,70.986-72.991c3.376-22.827-2.176-45.595-15.634-64.109
	c-13.529-18.61-33.411-30.697-55.984-34.036c-34.88-5.16-69.886,12.45-87.093,43.818L440.048,215.86z"/>
<path style="fill:#9D5B6E;" d="M434.944,184.933c23.41-3.863,41.527-22.61,45.082-46.649c2.168-14.662-1.376-29.255-9.982-41.093
	c-8.534-11.741-21.042-19.362-35.214-21.458c-21.981-3.254-44.092,7.956-55.025,27.884L434.944,184.933z"/>
<path style="fill:#663E1E;" d="M71.951,215.86c-36.904-6.089-65.431-35.423-70.986-72.991c-3.376-22.827,2.176-45.595,15.634-64.109
	c13.528-18.61,33.41-30.697,55.983-34.036c34.88-5.16,69.886,12.45,87.093,43.818L71.951,215.86z"/>
<path style="fill:#D37B93;" d="M77.054,184.933c-23.41-3.863-41.527-22.61-45.082-46.649c-2.168-14.662,1.376-29.255,9.982-41.093
	c8.534-11.741,21.042-19.362,35.214-21.458c21.981-3.254,44.092,7.956,55.025,27.884L77.054,184.933z"/>
<path style="fill:#965500;" d="M255.999,468.165c-60.292,0-110.835-16.287-146.166-47.103
	c-37.2-32.446-56.863-80.395-56.863-138.665c0-54.95,3.956-111.63,32.654-153.925c31.223-46.016,86.953-68.385,170.374-68.385
	s139.15,22.369,170.374,68.385c28.698,42.295,32.654,98.975,32.654,153.925c0,58.27-19.662,106.219-56.863,138.665
	C366.834,451.876,316.291,468.165,255.999,468.165z"/>
<path style="fill:#703F16;" d="M426.373,128.472C395.15,82.456,339.42,60.087,255.999,60.087v408.077
	c60.292,0,110.835-16.287,146.166-47.103c37.2-32.446,56.863-80.395,56.863-138.665
	C459.027,227.446,455.071,170.766,426.373,128.472z"/>
<g>
	<path style="fill:#333333;" d="M183.269,221.307c0-11.512,9.228-20.835,20.568-20.835c11.355,0,20.582,9.323,20.582,20.835
		c0,11.51-9.227,20.842-20.582,20.842C192.497,242.149,183.269,232.818,183.269,221.307z"/>
	<path style="fill:#333333;" d="M328.729,221.307c0-11.597-9.288-20.998-20.724-20.998c-11.45,0-20.737,9.401-20.737,20.998
		c0,11.597,9.288,20.998,20.737,20.998C319.441,242.305,328.729,232.904,328.729,221.307z"/>
</g>
<g>
	<path style="fill:#211915;" d="M255.999,381.551c-16.753,0-31.73-13.16-37.391-18.818c-5.684-5.681-18.902-20.727-18.902-37.732
		c0-13.911,6.929-24.488,19.51-29.781c8.386-3.529,19.043-4.967,36.783-4.967c17.74,0,28.396,1.44,36.782,4.967
		c12.581,5.293,19.51,15.869,19.51,29.781c0,17.005-13.219,32.051-18.902,37.732C287.728,368.391,272.752,381.551,255.999,381.551z"
		/>
	<path style="fill:#211915;" d="M240.326,467.78c5.148,0.251,10.37,0.383,15.673,0.383s10.525-0.133,15.673-0.383V367.242h-31.346
		L240.326,467.78L240.326,467.78z"/>
</g>
<g>
</g>
<g>
</g>
<g>
</g>
<g>
</g>
<g>
</g>
<g>
</g>
<g>
</g>
<g>
</g>
<g>
</g>
<g>
</g>
<g>
</g>
<g>
</g>
<g>
</g>
<g>
</g>
<g>
</g>
</svg>
